<?xml version="1.0" encoding="utf-8"?>
<!-- Generator: Adobe Illustrator 27.9.3, SVG Export Plug-In . SVG Version: 9.03 Build 53313)  -->
<!DOCTYPE svg PUBLIC "-//W3C//DTD SVG 1.1//EN" "http://www.w3.org/Graphics/SVG/1.1/DTD/svg11.dtd" [
	<!ENTITY ns_extend "http://ns.adobe.com/Extensibility/1.0/">
	<!ENTITY ns_ai "http://ns.adobe.com/AdobeIllustrator/10.0/">
	<!ENTITY ns_graphs "http://ns.adobe.com/Graphs/1.0/">
	<!ENTITY ns_vars "http://ns.adobe.com/Variables/1.0/">
	<!ENTITY ns_imrep "http://ns.adobe.com/ImageReplacement/1.0/">
	<!ENTITY ns_sfw "http://ns.adobe.com/SaveForWeb/1.0/">
	<!ENTITY ns_custom "http://ns.adobe.com/GenericCustomNamespace/1.0/">
	<!ENTITY ns_adobe_xpath "http://ns.adobe.com/XPath/1.0/">
]>
<svg version="1.1" id="a" xmlns:x="&ns_extend;" xmlns:i="&ns_ai;" xmlns:graph="&ns_graphs;"
	 xmlns="http://www.w3.org/2000/svg" xmlns:xlink="http://www.w3.org/1999/xlink" x="0px" y="0px" viewBox="0 0 582.4 85"
	 style="enable-background:new 0 0 582.4 85;" xml:space="preserve">
<style type="text/css">
	.st0{fill:#FFFFFF;}
</style>
<metadata><?xpacket begin="﻿" id="W5M0MpCehiHzreSzNTczkc9d"?>
<x:xmpmeta xmlns:x="adobe:ns:meta/" x:xmptk="Adobe XMP Core 9.1-c001 116.a6bfb84, 2023/07/17-15:51:01        ">
   <rdf:RDF xmlns:rdf="http://www.w3.org/1999/02/22-rdf-syntax-ns#">
      <rdf:Description rdf:about=""
            xmlns:xmp="http://ns.adobe.com/xap/1.0/"
            xmlns:xmpGImg="http://ns.adobe.com/xap/1.0/g/img/"
            xmlns:xmpTPg="http://ns.adobe.com/xap/1.0/t/pg/"
            xmlns:stDim="http://ns.adobe.com/xap/1.0/sType/Dimensions#"
            xmlns:xmpG="http://ns.adobe.com/xap/1.0/g/"
            xmlns:dc="http://purl.org/dc/elements/1.1/">
         <xmp:CreatorTool>Adobe Illustrator 27.9 (Windows)</xmp:CreatorTool>
         <xmp:CreateDate>2024-04-16T16:22:11+02:00</xmp:CreateDate>
         <xmp:Thumbnails>
            <rdf:Alt>
               <rdf:li rdf:parseType="Resource">
                  <xmpGImg:width>256</xmpGImg:width>
                  <xmpGImg:height>40</xmpGImg:height>
                  <xmpGImg:format>JPEG</xmpGImg:format>
                  <xmpGImg:image>/9j/4AAQSkZJRgABAgEASABIAAD/7QAsUGhvdG9zaG9wIDMuMAA4QklNA+0AAAAAABAASAAAAAEA&#xA;AQBIAAAAAQAB/+4ADkFkb2JlAGTAAAAAAf/bAIQABgQEBAUEBgUFBgkGBQYJCwgGBggLDAoKCwoK&#xA;DBAMDAwMDAwQDA4PEA8ODBMTFBQTExwbGxscHx8fHx8fHx8fHwEHBwcNDA0YEBAYGhURFRofHx8f&#xA;Hx8fHx8fHx8fHx8fHx8fHx8fHx8fHx8fHx8fHx8fHx8fHx8fHx8fHx8fHx8f/8AAEQgAKAEAAwER&#xA;AAIRAQMRAf/EAaIAAAAHAQEBAQEAAAAAAAAAAAQFAwIGAQAHCAkKCwEAAgIDAQEBAQEAAAAAAAAA&#xA;AQACAwQFBgcICQoLEAACAQMDAgQCBgcDBAIGAnMBAgMRBAAFIRIxQVEGE2EicYEUMpGhBxWxQiPB&#xA;UtHhMxZi8CRygvElQzRTkqKyY3PCNUQnk6OzNhdUZHTD0uIIJoMJChgZhJRFRqS0VtNVKBry4/PE&#xA;1OT0ZXWFlaW1xdXl9WZ2hpamtsbW5vY3R1dnd4eXp7fH1+f3OEhYaHiImKi4yNjo+Ck5SVlpeYmZ&#xA;qbnJ2en5KjpKWmp6ipqqusra6voRAAICAQIDBQUEBQYECAMDbQEAAhEDBCESMUEFURNhIgZxgZEy&#xA;obHwFMHR4SNCFVJicvEzJDRDghaSUyWiY7LCB3PSNeJEgxdUkwgJChgZJjZFGidkdFU38qOzwygp&#xA;0+PzhJSktMTU5PRldYWVpbXF1eX1RlZmdoaWprbG1ub2R1dnd4eXp7fH1+f3OEhYaHiImKi4yNjo&#xA;+DlJWWl5iZmpucnZ6fkqOkpaanqKmqq6ytrq+v/aAAwDAQACEQMRAD8A9U4q7FXYq7FXYq7FXYq7&#xA;FXYq7FXYq7FXYq7FXYq7FXYq7FXYq7FXYq7FXYq7FXYq7FXYq7FXYq7FXYq7FXYq7FXYq7FXYq7F&#xA;XYq7FXYq7FXYq7FXYq7FXYq7FXYq7FXYq7FXYq7FXYq7FXYq7FXYq7FXYq7FXYq7FXYq7FXYq7FX&#xA;Yq7FXYq7FXYq7FXYq7FXYq7FXYq7FXYq7FXYq7FXYq7FXYq7FXYq7FXYq7FXYq7FXYq7FXYq7FXY&#xA;q7FXYq7FXYq7FXYq7FXYq7FXYq7FXYq7FXYq7FXYq7FXYq7FXYq7FXYq7FXYq7FXYq7FXYq7FXYq&#xA;7FXYq7FXYq7FXYq7FXYq7FXYq7FXYq7FXYq7FXYq7FXYq7FXYq7FXYq7FXYq7FXYq7FXYq7FXYq7&#xA;FX//2Q==</xmpGImg:image>
               </rdf:li>
            </rdf:Alt>
         </xmp:Thumbnails>
         <xmpTPg:MaxPageSize rdf:parseType="Resource">
            <stDim:w>582.419983</stDim:w>
            <stDim:h>85.000000</stDim:h>
            <stDim:unit>Points</stDim:unit>
         </xmpTPg:MaxPageSize>
         <xmpTPg:NPages>1</xmpTPg:NPages>
         <xmpTPg:HasVisibleTransparency>False</xmpTPg:HasVisibleTransparency>
         <xmpTPg:HasVisibleOverprint>False</xmpTPg:HasVisibleOverprint>
         <xmpTPg:SwatchGroups>
            <rdf:Seq>
               <rdf:li rdf:parseType="Resource">
                  <xmpG:groupName>Grupo de muestras por defecto</xmpG:groupName>
                  <xmpG:groupType>0</xmpG:groupType>
               </rdf:li>
            </rdf:Seq>
         </xmpTPg:SwatchGroups>
         <dc:format>image/svg+xml</dc:format>
      </rdf:Description>
   </rdf:RDF>
</x:xmpmeta>
                                                                                                    
                                                                                                    
                                                                                                    
                                                                                                    
                                                                                                    
                                                                                                    
                                                                                                    
                                                                                                    
                                                                                                    
                                                                                                    
                                                                                                    
                                                                                                    
                                                                                                    
                                                                                                    
                                                                                                    
                                                                                                    
                                                                                                    
                                                                                                    
                                                                                                    
                                                                                                    
                           
<?xpacket end="w"?>
	</metadata>
<path id="b" class="st0" d="M0,85h59.5V0H0V85z M27.6,7.1H29V5.7h1.4v1.4h1.4v1.4h-1.4v1.4H29V8.5h-1.4C27.6,8.5,27.6,7.1,27.6,7.1z
	 M17,68h-2.8v2.8h-2.8V68H8.5v-2.8h2.8v-2.8h2.8v2.8H17V68z M17,51h-2.8v2.8h-2.8V51H8.5v-2.8h2.8v-2.8h2.8v2.8H17V51z M17,34h-2.8
	v2.8h-2.8V34H8.5v-2.8h2.8v-2.8h2.8v2.8H17V34z M31.2,63.6c0,0.5,0,1,0,1.5c0,4.2,1.3,8.2,3.6,11.3h-9.9c2.2-3.2,3.5-7.1,3.5-11.3
	c0-0.5,0-1,0-1.5c-4.8-0.7-8.5-4.8-8.5-9.8h19.9C39.7,58.8,36,63,31.2,63.6 M34,31.2V34h-2.8v2.8h-2.8V34h-2.8v-2.8h2.8v-2.8h2.8
	v2.8H34z M29.8,39.7c3.1,0,5.7,2.6,5.7,5.6S32.9,51,29.8,51s-5.6-2.6-5.6-5.7C24.1,42.2,26.7,39.7,29.8,39.7 M39.7,24.8H19.9v-2.1
	h19.8L39.7,24.8L39.7,24.8z M41.7,19.1l-1,1.5H38l1.9-2.7c0.3-0.5,0.4-1.1,0.4-1.5c0-0.7-0.2-1.2-0.6-1.7c-0.5-0.5-1.2-0.8-1.9-0.8
	c-0.3,0-0.5,0.1-0.5,0.1l0,0c0.2,0.6,0.3,1.1,0.3,1.6c0,0.9-0.1,1.7-0.6,2.5l-1.5,2.5h-2.6L35,17c0.2-0.3,0.4-1,0.4-1.5
	c0-0.7-0.2-1.3-0.7-1.8c-0.5-0.6-1.2-0.8-1.9-0.8c-0.9,0-1.5,0.3-1.9,0.8v6.9h-2.1v-7c-0.4-0.5-1-0.8-1.9-0.8
	c-0.7,0-1.3,0.3-1.9,0.8c-0.5,0.5-0.7,1-0.7,1.8c0,0.5,0.2,1.1,0.4,1.5l2.1,3.5h-2.6L22.7,18c-0.5-0.8-0.6-1.6-0.6-2.5
	c0-0.5,0.1-1,0.3-1.6l0,0c0,0-0.2-0.1-0.5-0.1c-0.7,0-1.4,0.3-1.9,0.8c-0.4,0.4-0.6,1-0.6,1.7c0,0.4,0.1,1,0.4,1.5l1.9,2.7H19L18,19
	c-0.6-0.8-0.8-1.7-0.8-2.7c0-1.3,0.5-2.5,1.4-3.3c0.9-0.9,2-1.4,3.3-1.4c0.6,0,1.1,0.1,1.8,0.3c0-0.1,0.1-0.1,0.2-0.2
	c0.8-0.8,1.9-1.2,3.1-1.2c1.1,0,2.1,0.3,3,1c0.9-0.7,1.9-1,3-1c1.2,0,2.3,0.4,3.1,1.2c0,0.1,0.1,0.1,0.2,0.2
	c0.6-0.2,1.2-0.3,1.8-0.3c1.3,0,2.4,0.5,3.3,1.4c0.9,0.8,1.4,1.9,1.4,3.3C42.6,17.4,42.3,18.2,41.7,19.1 M51,68h-2.8v2.8h-2.8V68
	h-2.8v-2.8h2.8v-2.8h2.8v2.8H51V68z M51,51h-2.8v2.8h-2.8V51h-2.8v-2.8h2.8v-2.8h2.8v2.8H51V51z M51,34h-2.8v2.8h-2.8V34h-2.8v-2.8
	h2.8v-2.8h2.8v2.8H51V34z M99.1,62.1c0,9.2-5.3,14.4-13.1,14.4h-9.3V48.2h8.9C93.7,48.2,99.1,53.2,99.1,62.1 M95.1,62.1
	c0-7-4.1-10.5-9.7-10.5h-5.2v21.5h5.4C91.2,73,95.1,69.4,95.1,62.1 M105.7,48.2h17.4l-1.2,3.5h-12.6V60h11.3v3.5h-11.3V73h12.8
	l1.2,3.4h-17.6L105.7,48.2C105.7,48.2,105.7,48.2,105.7,48.2z M139.9,62.2c0-8.8,5.5-14.7,13.9-14.7c3.2,0,6.9,1.2,9.7,2.9v4.3
	c-3.5-2.2-7.3-3.6-9.7-3.6c-5.9,0-10,4.5-10,11.2c0,7.1,3.6,11.5,8.9,11.5c4.9,0,8.5-3.1,8.9-8.4h-7.9l-1.1-3.5h12.7
	c0.2,0.8,0.3,1.6,0.3,2.6c0,7.5-5,12.8-12.9,12.8S139.9,71.5,139.9,62.2 M180.9,48.2h2.4l11.9,28.4h-4.1l-2.8-6.9h-12.7l-2.8,6.9
	h-3.9L180.9,48.2L180.9,48.2z M187,66.2l-5-12.4l-5,12.4H187L187,66.2z M200.3,48.2h3.7v24.9h13.2l1.1,3.4h-18L200.3,48.2
	L200.3,48.2L200.3,48.2z M223.6,48.2h3.7v28.4h-3.7C223.6,76.5,223.6,48.2,223.6,48.2z M234,62.1c0-8.8,4.8-14.6,12.5-14.6
	c3.3,0,6.8,1.2,9.5,3.2V55c-3.1-2.3-6.6-4-9.5-4c-4.9,0-8.6,4.2-8.6,11.1s3.4,11.5,8.6,11.5c2.9,0,6.3-1.6,9.5-4V74
	c-2.6,1.9-6.1,3.2-9.5,3.2C238.6,77.2,234,71.2,234,62.1 M262.6,48.2h3.7v28.4h-3.7V48.2z M283.3,48.2h2.4l11.9,28.4h-4.1l-2.8-6.9
	h-12.7l-2.8,6.9h-3.9L283.3,48.2L283.3,48.2z M289.5,66.2l-5-12.4l-5,12.4H289.5L289.5,66.2z M86.1,22.3L77,8.5h4.3l7.1,10.7l7-10.7
	h4.2l-9.1,13.8l9.6,14.5h-4.3l-7.6-11.4l-7.5,11.4h-4.2L86.1,22.3L86.1,22.3z M104.6,27.3V8.5h3.7v18.7c0,4.4,2.7,6.8,6.8,6.8
	s6.8-2.5,6.8-6.8V8.5h3.7v18.9c0,6.4-4.1,10.2-10.5,10.2S104.6,33.7,104.6,27.3 M133.6,8.5h3.1l14.5,20.2V8.5h3.7v28.4h-2.1
	l-15.5-21.7v21.7h-3.7L133.6,8.5L133.6,8.5L133.6,8.5z M171.5,12h-10.3L160,8.5h26.5l-1.1,3.4h-10.3v24.9h-3.7L171.5,12L171.5,12
	L171.5,12z M197.1,8.5h2.4l11.9,28.4h-4.1l-2.8-7h-12.7l-2.8,7h-3.9L197.1,8.5L197.1,8.5z M203.3,26.5l-5-12.4l-5,12.4H203.3
	L203.3,26.5z"/>
<rect id="c" x="314.6" y="0" class="st0" width="2.9" height="85"/>
<g id="d">
	<path class="st0" d="M336.9,25.8c-1.1-0.8-2-1.8-2.6-3.2c-0.6-1.4-0.9-3-0.9-4.8s0.3-3.3,0.9-4.7s1.5-2.4,2.7-3.1
		c1.1-0.7,2.5-1.1,4-1.1c1,0,2,0.2,3,0.5s1.9,0.8,2.7,1.4v2.6c-1-0.7-2-1.3-3-1.8c-1-0.4-1.9-0.6-2.8-0.6c-1,0-1.9,0.3-2.7,0.8
		c-0.8,0.5-1.4,1.3-1.9,2.4c-0.4,1-0.7,2.2-0.7,3.6c0,1.4,0.2,2.7,0.6,3.7c0.4,1,1,1.9,1.8,2.4c0.8,0.6,1.7,0.9,2.7,0.9
		c0.9,0,1.8-0.2,2.8-0.6s2-1,3-1.8V25c-0.8,0.6-1.7,1.1-2.7,1.4c-1,0.3-2,0.5-3,0.5C339.4,27,338,26.6,336.9,25.8L336.9,25.8z"/>
	<path class="st0" d="M352.9,25.9c-1.2-0.7-2.1-1.8-2.7-3.2c-0.6-1.4-1-3-1-4.9s0.3-3.4,1-4.7c0.6-1.4,1.5-2.4,2.7-3.2
		c1.2-0.7,2.5-1.1,4.1-1.1s3,0.4,4.1,1.1c1.2,0.7,2.1,1.8,2.7,3.1c0.6,1.4,1,2.9,1,4.7s-0.3,3.5-1,4.9c-0.6,1.4-1.5,2.5-2.7,3.2
		c-1.2,0.7-2.5,1.1-4.1,1.1S354.1,26.7,352.9,25.9z M361,23c1-1.2,1.4-3,1.4-5.2c0-1.4-0.2-2.6-0.7-3.6s-1.1-1.8-1.9-2.4
		c-0.8-0.5-1.8-0.8-2.9-0.8s-2,0.3-2.9,0.8s-1.4,1.3-1.9,2.4s-0.7,2.2-0.7,3.6c0,2.3,0.5,4,1.4,5.2s2.3,1.8,4,1.8S360,24.3,361,23z"
		/>
	<path class="st0" d="M368.5,9.3h1.9l8.9,12.3V9.3h2.3v17.3h-1.3l-9.5-13.2v13.2h-2.3V9.3z"/>
	<path class="st0" d="M387.1,26.6c-0.8-0.2-1.5-0.6-2.2-1v-2.4c0.8,0.5,1.5,0.9,2.4,1.2c0.8,0.3,1.6,0.5,2.2,0.5
		c1.1,0,2.1-0.3,2.8-0.8s1-1.2,1-2.1c0-0.5-0.1-1-0.4-1.4c-0.3-0.4-0.7-0.7-1.1-1c-0.5-0.3-1.1-0.6-2-1.1c-1.1-0.6-2-1-2.6-1.4
		c-0.6-0.4-1.1-0.9-1.5-1.5c-0.4-0.6-0.6-1.4-0.6-2.3c0-0.8,0.2-1.6,0.6-2.3c0.4-0.7,1-1.2,1.8-1.6c0.8-0.4,1.7-0.6,2.8-0.6
		c0.8,0,1.6,0.1,2.5,0.3c0.8,0.2,1.6,0.5,2.3,0.9v2.4c-1.9-1-3.4-1.5-4.7-1.5c-1,0-1.7,0.2-2.2,0.7s-0.8,1-0.8,1.7
		c0,0.4,0.1,0.8,0.3,1.1c0.2,0.3,0.5,0.6,1,0.9s1,0.6,1.9,1c1.3,0.7,2.3,1.2,2.9,1.6c0.6,0.4,1.1,0.9,1.5,1.5s0.6,1.4,0.6,2.4
		c0,1.5-0.6,2.8-1.7,3.7s-2.6,1.4-4.4,1.4C388.7,27,387.9,26.9,387.1,26.6L387.1,26.6z"/>
	<path class="st0" d="M399.2,9.3h10.6l-0.7,2.1h-7.7v5.1h6.9v2.1h-6.9v5.9h7.8l0.7,2.1h-10.7L399.2,9.3L399.2,9.3z"/>
	<path class="st0" d="M413.2,9.3h2.3v15.2h8l0.7,2.1h-11V9.3z"/>
	<path class="st0" d="M427,9.3h2.3v15.2h8l0.7,2.1h-11V9.3z"/>
	<path class="st0" d="M440.7,9.3h10.6l-0.7,2.1h-7.7v5.1h6.9v2.1h-6.9v5.9h7.8l0.7,2.1h-10.7L440.7,9.3L440.7,9.3z"/>
	<path class="st0" d="M459.7,9.3c1.8,0,3.2,0.4,4.3,1.3s1.5,2.1,1.5,3.6s-0.5,2.7-1.4,3.6c-1,0.9-2.2,1.4-3.9,1.5l6.6,7.4h-2.9
		l-6.4-7.3H457v7.3h-2.3V9.3H459.7L459.7,9.3z M462.2,16.5c0.7-0.6,1-1.3,1-2.2s-0.3-1.6-1-2.1c-0.6-0.5-1.5-0.8-2.6-0.8h-2.7v6h2.6
		C460.6,17.4,461.5,17.1,462.2,16.5L462.2,16.5z"/>
	<path class="st0" d="M469.5,6.6l2.2-3.3h2.9L471,7.5L469.5,6.6L469.5,6.6z M469.6,9.3h2.3v17.3h-2.3V9.3z"/>
	<path class="st0" d="M481.8,9.3h1.5l7.3,17.3H488l-1.7-4.2h-7.8l-1.7,4.2h-2.4L481.8,9.3L481.8,9.3z M485.5,20.3l-3-7.6l-3.1,7.6
		H485.5z"/>
	<path class="st0" d="M509.7,10.3c1.2,0.7,2.2,1.6,2.9,2.9c0.7,1.3,1,2.8,1,4.6s-0.3,3.4-1,4.7c-0.7,1.3-1.6,2.3-2.8,3
		c-1.2,0.7-2.6,1-4.2,1h-5.7V9.3h5.5C507,9.3,508.5,9.6,509.7,10.3L509.7,10.3z M509.6,22.8c1-1.1,1.6-2.8,1.6-5s-0.5-3.7-1.6-4.8
		s-2.5-1.7-4.3-1.7h-3.2v13.1h3.3C507.2,24.5,508.6,23.9,509.6,22.8L509.6,22.8z"/>
	<path class="st0" d="M517.2,9.3h10.6l-0.7,2.1h-7.7v5.1h6.9v2.1h-6.9v5.9h7.8l0.7,2.1h-10.7L517.2,9.3L517.2,9.3z"/>
</g>
<g id="e">
	<path class="st0" d="M334.3,33.8h10.6l-0.7,2.1h-7.7V41h6.9v2.1h-6.9V49h7.8l0.7,2.1h-10.7L334.3,33.8L334.3,33.8z"/>
	<path class="st0" d="M348.3,33.8h2.1l6.3,12.9l6.3-12.9h2v17.3h-2.2V38.6L357,50.5h-0.8l-5.8-11.9v12.5h-2.2V33.8z"/>
	<path class="st0" d="M374.4,33.8c1.9,0,3.4,0.5,4.5,1.4c1.1,0.9,1.6,2.2,1.6,3.9s-0.5,3.1-1.6,4s-2.5,1.5-4.4,1.5h-2.6v6.5h-2.3
		V33.8L374.4,33.8L374.4,33.8z M377.1,41.7c0.7-0.6,1-1.5,1-2.5s-0.3-1.8-1-2.4c-0.7-0.6-1.6-0.9-2.8-0.9h-2.4v6.7h2.5
		C375.5,42.6,376.5,42.3,377.1,41.7L377.1,41.7z"/>
	<path class="st0" d="M388.8,33.8c1.8,0,3.2,0.4,4.3,1.3s1.5,2.1,1.5,3.6s-0.5,2.7-1.4,3.6c-1,0.9-2.2,1.4-3.9,1.5l6.6,7.3H393
		l-6.4-7.3H386v7.3h-2.3V33.8H388.8L388.8,33.8z M391.2,41c0.7-0.6,1-1.3,1-2.2s-0.3-1.6-1-2.1c-0.6-0.5-1.5-0.8-2.6-0.8H386v6h2.6
		C389.7,41.9,390.6,41.6,391.2,41L391.2,41z"/>
	<path class="st0" d="M398.7,33.8h10.6l-0.7,2.1h-7.7V41h6.9v2.1h-6.9V49h7.8l0.7,2.1h-10.7L398.7,33.8L398.7,33.8z"/>
	<path class="st0" d="M415,50.4c-1.2-0.7-2.1-1.8-2.7-3.2c-0.6-1.4-1-3-1-4.9s0.4-3.4,1-4.7c0.7-1.3,1.7-2.4,3-3.2
		c1.3-0.7,2.8-1.1,4.5-1.1c0.9,0,1.9,0.2,3,0.5s2,0.8,2.9,1.3v2.6c-1.1-0.7-2.1-1.2-3.2-1.6c-1.1-0.4-2-0.6-2.7-0.6
		c-1.2,0-2.2,0.3-3.2,0.8s-1.6,1.4-2.2,2.4s-0.8,2.2-0.8,3.6c0,1.4,0.2,2.7,0.7,3.7c0.5,1.1,1.1,1.9,1.9,2.4
		c0.8,0.6,1.8,0.8,2.8,0.8c1.5,0,2.8-0.5,3.8-1.4s1.6-2.2,1.7-3.8h-4.8l-0.7-2.1h7.8c0.1,0.5,0.1,1,0.1,1.6c0,1.5-0.3,2.9-1,4.1
		c-0.6,1.2-1.6,2.1-2.8,2.8s-2.6,1-4.1,1S416.2,51.2,415,50.4L415,50.4z"/>
	<path class="st0" d="M433.3,50.4c-1.2-0.7-2.1-1.8-2.7-3.2c-0.6-1.4-1-3-1-4.9s0.3-3.4,1-4.7c0.6-1.3,1.5-2.4,2.7-3.2
		c1.2-0.7,2.5-1.1,4.1-1.1s3,0.4,4.1,1.1c1.2,0.7,2.1,1.8,2.7,3.2c0.6,1.3,1,2.9,1,4.7s-0.3,3.5-1,4.9c-0.6,1.4-1.5,2.5-2.7,3.2
		c-1.2,0.7-2.5,1.1-4.1,1.1S434.5,51.2,433.3,50.4z M441.4,47.6c1-1.2,1.4-3,1.4-5.2c0-1.4-0.2-2.6-0.7-3.7c-0.4-1-1.1-1.8-1.9-2.4
		c-0.8-0.5-1.8-0.8-2.9-0.8s-2,0.3-2.9,0.8s-1.4,1.3-1.9,2.4s-0.7,2.2-0.7,3.7c0,2.3,0.5,4,1.4,5.2s2.3,1.8,4,1.8
		S440.4,48.8,441.4,47.6z"/>
	<path class="st0" d="M445.9,54.3l2.3-6.2h2.3l-2.7,7.2L445.9,54.3L445.9,54.3z"/>
	<path class="st0" d="M463.1,50.4c-1.1-0.8-2-1.8-2.6-3.2c-0.6-1.4-0.9-3-0.9-4.8s0.3-3.3,0.9-4.7s1.5-2.4,2.7-3.1
		c1.1-0.7,2.5-1.1,4-1.1c1,0,2,0.2,3,0.5s1.9,0.8,2.7,1.4V38c-1-0.7-2-1.3-3-1.8c-1-0.4-1.9-0.7-2.8-0.7c-1,0-1.9,0.3-2.7,0.8
		c-0.8,0.5-1.4,1.3-1.9,2.4c-0.4,1-0.7,2.2-0.7,3.6c0,1.4,0.2,2.7,0.6,3.7c0.4,1,1,1.9,1.8,2.4c0.8,0.6,1.7,0.8,2.7,0.8
		c0.9,0,1.8-0.2,2.8-0.7s2-1,3-1.8v2.6c-0.8,0.6-1.7,1.1-2.7,1.4c-1,0.3-2,0.5-3,0.5C465.6,51.5,464.3,51.1,463.1,50.4L463.1,50.4z"
		/>
	<path class="st0" d="M479.2,50.4c-1.2-0.7-2.1-1.8-2.7-3.2c-0.6-1.4-1-3-1-4.9s0.3-3.4,1-4.7c0.6-1.3,1.5-2.4,2.7-3.2
		c1.2-0.7,2.5-1.1,4.1-1.1s3,0.4,4.1,1.1c1.2,0.7,2.1,1.8,2.7,3.2c0.6,1.3,1,2.9,1,4.7s-0.3,3.5-1,4.9c-0.6,1.4-1.5,2.5-2.7,3.2
		c-1.2,0.7-2.5,1.1-4.1,1.1S480.4,51.2,479.2,50.4z M487.3,47.6c1-1.2,1.4-3,1.4-5.2c0-1.4-0.2-2.6-0.7-3.7c-0.4-1-1.1-1.8-1.9-2.4
		c-0.8-0.5-1.8-0.8-2.9-0.8s-2,0.3-2.9,0.8s-1.4,1.3-1.9,2.4s-0.7,2.2-0.7,3.7c0,2.3,0.5,4,1.4,5.2s2.3,1.8,4,1.8
		S486.3,48.8,487.3,47.6z"/>
	<path class="st0" d="M494.8,33.8h2.1l6.3,12.9l6.3-12.9h2v17.3h-2.2V38.6l-5.8,11.9h-0.8l-5.8-11.9v12.5h-2.2V33.8z"/>
	<path class="st0" d="M516.1,33.8h10.6l-0.7,2.1h-7.7V41h6.9v2.1h-6.9V49h7.8l0.7,2.1h-10.7L516.1,33.8L516.1,33.8z"/>
	<path class="st0" d="M535.1,33.8c1.8,0,3.2,0.4,4.3,1.3s1.5,2.1,1.5,3.6s-0.5,2.7-1.4,3.6c-1,0.9-2.2,1.4-3.9,1.5l6.7,7.3h-2.9
		l-6.4-7.3h-0.5v7.3h-2.3V33.8H535.1L535.1,33.8z M537.5,41c0.7-0.6,1-1.3,1-2.2s-0.3-1.6-1-2.1c-0.6-0.5-1.5-0.8-2.6-0.8h-2.7v6
		h2.6C536,41.9,536.9,41.6,537.5,41L537.5,41z"/>
	<path class="st0" d="M547.5,50.4c-1.2-0.8-2-1.8-2.6-3.2c-0.6-1.4-0.9-3-0.9-4.8s0.3-3.3,0.9-4.7s1.5-2.4,2.7-3.1
		c1.2-0.7,2.5-1.1,4-1.1c1,0,2,0.2,3,0.5s1.9,0.8,2.7,1.4V38c-1-0.7-2-1.3-3-1.8c-1-0.4-1.9-0.7-2.8-0.7c-1,0-1.9,0.3-2.7,0.8
		c-0.8,0.5-1.4,1.3-1.9,2.4c-0.4,1-0.7,2.2-0.7,3.6c0,1.4,0.2,2.7,0.7,3.7c0.4,1,1,1.9,1.8,2.4c0.8,0.6,1.7,0.8,2.7,0.8
		c0.8,0,1.8-0.2,2.8-0.7s2-1,3-1.8v2.6c-0.8,0.6-1.7,1.1-2.7,1.4c-1,0.3-2,0.5-3,0.5C550,51.5,548.7,51.1,547.5,50.4L547.5,50.4z"/>
	<path class="st0" d="M561,33.8h2.3v17.3H561V33.8z"/>
	<path class="st0" d="M570.5,50.4c-1.2-0.7-2.1-1.8-2.7-3.2c-0.6-1.4-1-3-1-4.9s0.3-3.4,1-4.7c0.6-1.3,1.5-2.4,2.7-3.2
		c1.2-0.7,2.5-1.1,4.1-1.1s3,0.4,4.1,1.1c1.2,0.7,2.1,1.8,2.7,3.2c0.6,1.3,1,2.9,1,4.7s-0.3,3.5-1,4.9c-0.6,1.4-1.5,2.5-2.7,3.2
		c-1.2,0.7-2.5,1.1-4.1,1.1S571.7,51.2,570.5,50.4z M578.6,47.6c1-1.2,1.4-3,1.4-5.2c0-1.4-0.2-2.6-0.7-3.7c-0.4-1-1.1-1.8-1.9-2.4
		c-0.8-0.5-1.8-0.8-2.8-0.8s-2,0.3-2.8,0.8s-1.4,1.3-1.9,2.4s-0.7,2.2-0.7,3.7c0,2.3,0.5,4,1.4,5.2s2.3,1.8,4,1.8
		S577.6,48.8,578.6,47.6L578.6,47.6z"/>
</g>
<g id="f">
	<path class="st0" d="M334.3,59.5h10.6l-0.7,2.1h-7.7v5.1h6.9v2.1h-6.9v5.9h7.8l0.7,2.1h-10.7L334.3,59.5L334.3,59.5z"/>
	<path class="st0" d="M355,59.5h10.6l-0.7,2.1h-7.7v5.1h6.9v2.1h-6.9v5.9h7.8l0.7,2.1H355L355,59.5L355,59.5z"/>
	<path class="st0" d="M369,59.5h2.1l6.3,12.9l6.3-12.9h2v17.3h-2.2V64.3l-5.8,11.9H377l-5.8-11.9v12.5H369V59.5L369,59.5z"/>
	<path class="st0" d="M390.3,59.5h2.3v17.3h-2.3V59.5z"/>
	<path class="st0" d="M399.8,76.1c-1.2-0.7-2.1-1.8-2.7-3.2c-0.6-1.4-1-3-1-4.9s0.4-3.4,1-4.7c0.7-1.3,1.7-2.4,3-3.2
		c1.3-0.7,2.8-1.1,4.5-1.1c0.9,0,1.9,0.2,3,0.5s2,0.8,2.9,1.3v2.6c-1.1-0.7-2.1-1.2-3.2-1.6c-1.1-0.4-2-0.6-2.7-0.6
		c-1.2,0-2.2,0.3-3.2,0.8s-1.6,1.4-2.2,2.4s-0.8,2.2-0.8,3.6c0,1.4,0.2,2.7,0.7,3.7c0.5,1.1,1.1,1.9,1.9,2.4
		c0.8,0.6,1.8,0.8,2.8,0.8c1.5,0,2.8-0.5,3.8-1.4s1.6-2.2,1.7-3.8h-4.8l-0.7-2.1h7.8c0.1,0.5,0.1,1,0.1,1.6c0,1.5-0.3,2.9-1,4.1
		c-0.6,1.2-1.6,2.1-2.8,2.8c-1.2,0.7-2.6,1-4.1,1S401,76.9,399.8,76.1L399.8,76.1z"/>
	<path class="st0" d="M420.4,59.5c1.8,0,3.2,0.4,4.3,1.3s1.5,2.1,1.5,3.6s-0.5,2.7-1.4,3.6c-1,0.9-2.2,1.4-3.9,1.4l6.6,7.3h-2.9
		l-6.4-7.3h-0.5v7.3h-2.3V59.5L420.4,59.5L420.4,59.5z M422.9,66.7c0.7-0.6,1-1.3,1-2.2s-0.3-1.6-1-2.1c-0.6-0.5-1.5-0.8-2.6-0.8
		h-2.7v6h2.6C421.3,67.6,422.2,67.3,422.9,66.7L422.9,66.7z"/>
	<path class="st0" d="M435.6,59.5h1.5l7.3,17.3h-2.5l-1.7-4.2h-7.8l-1.7,4.2h-2.4L435.6,59.5L435.6,59.5z M439.4,70.5l-3-7.6
		l-3.1,7.6H439.4z"/>
	<path class="st0" d="M449.1,76.1c-1.1-0.8-2-1.8-2.6-3.2c-0.6-1.4-0.9-3-0.9-4.8s0.3-3.3,0.9-4.7c0.6-1.3,1.5-2.4,2.7-3.1
		c1.1-0.7,2.5-1.1,4-1.1c1,0,2,0.2,3,0.5s1.9,0.8,2.7,1.4v2.6c-1-0.7-2-1.3-3-1.8c-1-0.4-1.9-0.7-2.8-0.7c-1,0-1.9,0.3-2.7,0.8
		c-0.8,0.5-1.4,1.3-1.9,2.4c-0.4,1-0.7,2.2-0.7,3.6c0,1.4,0.2,2.7,0.6,3.7c0.4,1.1,1,1.9,1.8,2.4c0.8,0.6,1.7,0.8,2.7,0.8
		c0.9,0,1.8-0.2,2.8-0.7s2-1,3-1.8v2.6c-0.8,0.6-1.7,1.1-2.7,1.4c-1,0.3-2,0.5-3,0.5C451.6,77.2,450.3,76.8,449.1,76.1L449.1,76.1z"
		/>
	<path class="st0" d="M462.5,59.5h2.3v17.3h-2.3V59.5z"/>
	<path class="st0" d="M472.1,76.1c-1.2-0.7-2.1-1.8-2.7-3.2c-0.6-1.4-1-3-1-4.9s0.3-3.4,1-4.7c0.6-1.3,1.5-2.4,2.7-3.2
		c1.2-0.7,2.5-1.1,4.1-1.1s3,0.4,4.1,1.1c1.2,0.7,2.1,1.8,2.7,3.2c0.6,1.3,1,2.9,1,4.7s-0.3,3.5-1,4.9c-0.6,1.4-1.5,2.5-2.7,3.2
		s-2.5,1.1-4.1,1.1S473.2,76.9,472.1,76.1z M480.1,73.3c1-1.2,1.4-3,1.4-5.2c0-1.4-0.2-2.6-0.7-3.7s-1.1-1.8-1.9-2.4
		c-0.8-0.5-1.8-0.8-2.9-0.8s-2,0.3-2.9,0.8s-1.4,1.3-1.9,2.4s-0.7,2.2-0.7,3.7c0,2.3,0.5,4,1.4,5.2s2.3,1.8,4,1.8
		S479.2,74.5,480.1,73.3z M474.9,56.8l2.2-3.3h2.9l-3.6,4.2L474.9,56.8L474.9,56.8z"/>
	<path class="st0" d="M487.6,59.5h1.9l8.9,12.3V59.5h2.3v17.3h-1.3l-9.5-13.2v13.2h-2.3V59.5z"/>
</g>
</svg>
