<svg width="92" height="28" viewBox="0 0 92 28" fill="none" xmlns="http://www.w3.org/2000/svg">
<path d="M0.0800004 28V-1.90735e-06H19.24C24.88 -1.90735e-06 28.88 2.92 28.88 8.4C28.88 12.48 26.64 15.16 23.12 16.24L28.28 28H21.28L16.36 16.8H6.48V28H0.0800004ZM6.48 11.2H17.96C21.24 11.2 22.48 10.2 22.48 8.4C22.48 6.56 21.24 5.6 17.96 5.6H6.48V11.2ZM39.8847 28V-1.90735e-06H46.2847V28H39.8847ZM54.2794 28L68.6794 -1.90735e-06H77.4794L91.8794 28H84.6794L81.7194 22H64.4394L61.4794 28H54.2794ZM67.1994 16.4H78.9594L73.0794 4.48L67.1994 16.4Z" fill="black"/>
</svg>
